# xmcd CD database file
#
# Track frame offsets:
#	150
#	164812
#	227749
#	247150
#
# Disc length: 4047 seconds
#
# Revision: 0
# Processed by: cddbd v1.5.2PL0 Copyright (c) Steve Scherf et al.
# Submitted via: CDex 1.51
#
DISCID=340fcd04
DTITLE=Nikolay Myaskovsky - Evgeny Svetlanov - Vol.06
DYEAR=1900
DGENRE=Classique
TTITLE0=Symphony N°22 in B minor Op.54 'Symphonic Ballad' - [USSR State Symphony Orchestra - 1970]
TTITLE1=Symphony N°25 in D flat major Op.69 - I. Adagio  [Grand Symphony Orchestra of TV and Radio, 1957]
TTITLE2=Symphony N°25 in D flat major Op.69 - II. Moderato
TTITLE3=Symphony N°25 in D flat major Op.69 - III. Allegro impetuoso
EXTD=
EXTT0=
EXTT1=
EXTT2=
EXTT3=
PLAYORDER=
